<svg width="22" height="22" viewBox="0 0 22 22" fill="none" xmlns="http://www.w3.org/2000/svg">
<path d="M10.0835 16.5C10.0835 15.9938 10.4939 15.5834 11.0002 15.5834C11.5064 15.5834 11.9168 15.9938 11.9168 16.5C11.9168 17.0063 11.5064 17.4167 11.0002 17.4167C10.4939 17.4167 10.0835 17.0063 10.0835 16.5Z" stroke="#666666" stroke-width="2" stroke-linecap="round" stroke-linejoin="round"/>
<path d="M10.0835 11C10.0835 10.4938 10.4939 10.0834 11.0002 10.0834C11.5064 10.0834 11.9168 10.4938 11.9168 11C11.9168 11.5063 11.5064 11.9167 11.0002 11.9167C10.4939 11.9167 10.0835 11.5063 10.0835 11Z" stroke="#666666" stroke-width="2" stroke-linecap="round" stroke-linejoin="round"/>
<path d="M10.0835 5.50004C10.0835 4.99378 10.4939 4.58337 11.0002 4.58337C11.5064 4.58337 11.9168 4.99378 11.9168 5.50004C11.9168 6.0063 11.5064 6.41671 11.0002 6.41671C10.4939 6.41671 10.0835 6.0063 10.0835 5.50004Z" stroke="#666666" stroke-width="2" stroke-linecap="round" stroke-linejoin="round"/>
</svg>
