<svg width="35" height="35" viewBox="0 0 35 35" fill="none" xmlns="http://www.w3.org/2000/svg">
<path d="M7.29183 30.625L27.7085 30.625C28.5139 30.625 29.1668 29.9721 29.1668 29.1667L29.1668 14.5833C29.1668 13.7779 28.5139 13.125 27.7085 13.125L7.29183 13.125C6.48641 13.125 5.8335 13.7779 5.8335 14.5833L5.8335 29.1667C5.8335 29.9721 6.48641 30.625 7.29183 30.625Z" stroke="black" stroke-width="2" stroke-linecap="round" stroke-linejoin="round"/>
<path d="M13.4615 13.125L21.5385 13.125C21.7243 13.125 21.875 12.9743 21.875 12.7885L21.875 8.75C21.875 6.33375 19.9162 4.375 17.5 4.375C15.0838 4.375 13.125 6.33375 13.125 8.75L13.125 12.7885C13.125 12.9743 13.2757 13.125 13.4615 13.125Z" stroke="black" stroke-width="2" stroke-linecap="round" stroke-linejoin="round"/>
</svg>
