<svg width="35" height="35" viewBox="0 0 35 35" fill="none" xmlns="http://www.w3.org/2000/svg">
<path d="M21.875 7.29163H29.1667C29.9721 7.29163 30.625 7.94454 30.625 8.74996V23.3333C30.625 24.1387 29.9721 24.7916 29.1667 24.7916H22.7581C21.2953 24.7916 19.9293 25.5227 19.1179 26.7398L17.5 29.1666V11.6666C17.5 9.25038 19.4588 7.29163 21.875 7.29163Z" stroke="black" stroke-width="2" stroke-linecap="round" stroke-linejoin="round"/>
<path d="M13.125 7.29163H5.83333C5.02792 7.29163 4.375 7.94454 4.375 8.74996V23.3333C4.375 24.1387 5.02792 24.7916 5.83333 24.7916H12.2419C13.7047 24.7916 15.0707 25.5227 15.8821 26.7398L17.5 29.1666V11.6666C17.5 9.25038 15.5412 7.29163 13.125 7.29163Z" stroke="black" stroke-width="2" stroke-linecap="round" stroke-linejoin="round"/>
</svg>
