<svg width="24" height="24" viewBox="0 0 24 24" fill="none" xmlns="http://www.w3.org/2000/svg">
<path d="M18.9904 17.2604H15.4104M17.2004 15.5104V19.1004M17.2004 22.0004C18.4734 22.0004 19.6943 21.4947 20.5945 20.5945C21.4947 19.6943 22.0004 18.4734 22.0004 17.2004C22.0004 15.9274 21.4947 14.7065 20.5945 13.8063C19.6943 12.9061 18.4734 12.4004 17.2004 12.4004C15.9274 12.4004 14.7065 12.9061 13.8063 13.8063C12.9061 14.7065 12.4004 15.9274 12.4004 17.2004C12.4004 18.4734 12.9061 19.6943 13.8063 20.5945C14.7065 21.4947 15.9274 22.0004 17.2004 22.0004Z" stroke="black" stroke-width="1.5" stroke-miterlimit="10" stroke-linecap="round" stroke-linejoin="round"/>
<path d="M22 8.68961C22 10.6596 21.49 12.3996 20.69 13.9096C20.242 13.4332 19.7013 13.0535 19.1011 12.7938C18.5009 12.5341 17.854 12.4 17.2 12.3996C14.55 12.3996 12.4 14.5496 12.4 17.1996C12.4 18.4296 12.87 19.5496 13.63 20.3996C13.26 20.5696 12.92 20.7096 12.62 20.8096C12.28 20.9296 11.72 20.9296 11.38 20.8096C8.48 19.8196 2 15.6896 2 8.68961C2 5.59961 4.49 3.09961 7.56 3.09961C9.37 3.09961 10.99 3.97961 12 5.32961C12.5159 4.63842 13.1857 4.077 13.9565 3.6899C14.7272 3.30281 15.5775 3.10069 16.44 3.09961C19.51 3.09961 22 5.59961 22 8.68961Z" stroke="black" stroke-width="1.5" stroke-linecap="round" stroke-linejoin="round"/>
</svg>
