<svg width="25" height="24" viewBox="0 0 25 24" fill="none" xmlns="http://www.w3.org/2000/svg">
<path d="M14.4393 11.3403C14.5339 10.9699 14.5299 10.5815 14.4275 10.2131C14.3252 9.84476 14.128 9.50906 13.8554 9.2389C13.5828 8.96873 13.2441 8.77336 12.8724 8.67193C12.5007 8.5705 12.1088 8.56648 11.735 8.66026C10.958 8.85026 10.3223 9.48026 10.1306 10.2503C10.036 10.6206 10.04 11.009 10.1424 11.3774C10.2447 11.7458 10.4419 12.0815 10.7145 12.3516C10.9871 12.6218 11.3258 12.8172 11.6975 12.9186C12.0692 13.02 12.4612 13.024 12.8349 12.9303C13.622 12.7403 14.2577 12.1103 14.4393 11.3403Z" stroke="black" stroke-width="1.5" stroke-linecap="round" stroke-linejoin="round"/>
<path d="M18.355 17.19C19.2415 16.3717 19.9482 15.381 20.4308 14.2798C20.9135 13.1786 21.1618 11.9906 21.1602 10.79C21.1602 9.63568 20.9308 8.49266 20.4851 7.42621C20.0393 6.35976 19.386 5.39076 18.5624 4.57453C17.7387 3.7583 16.761 3.11084 15.6848 2.6691C14.6087 2.22736 13.4553 2 12.2906 2C11.1258 2 9.97241 2.22736 8.89629 2.6691C7.82017 3.11084 6.84239 3.7583 6.01876 4.57453C5.19514 5.39076 4.5418 6.35976 4.09606 7.42621C3.65032 8.49266 3.4209 9.63568 3.4209 10.79C3.4209 13.33 4.51069 15.62 6.25637 17.22" stroke="black" stroke-width="1.5" stroke-linecap="round" stroke-linejoin="round"/>
<path d="M8.25448 14.5498C7.32614 13.5698 6.75098 12.2498 6.75098 10.7898C6.75098 7.7598 9.23327 5.2998 12.2907 5.2998C15.3482 5.2998 17.8305 7.7598 17.8305 10.7898C17.8305 12.2498 17.2553 13.5598 16.327 14.5498M10.5753 16.6598L9.12228 18.4498C7.97194 19.8798 8.9911 21.9898 10.8377 21.9898H13.7337C15.5803 21.9898 16.6095 19.8698 15.4491 18.4498L13.9961 16.6598C13.1283 15.5698 11.4532 15.5698 10.5753 16.6598Z" stroke="black" stroke-width="1.5" stroke-linecap="round" stroke-linejoin="round"/>
</svg>
