<svg width="24" height="24" viewBox="0 0 24 24" fill="none" xmlns="http://www.w3.org/2000/svg">
<path d="M14.1305 11.3403C14.2242 10.9699 14.2202 10.5815 14.1188 10.2131C14.0174 9.84476 13.822 9.50906 13.5518 9.2389C13.2817 8.96873 12.946 8.77336 12.5776 8.67193C12.2092 8.5705 11.8208 8.56648 11.4505 8.66026C10.6805 8.85026 10.0505 9.48026 9.86046 10.2503C9.76667 10.6206 9.7707 11.009 9.87213 11.3774C9.97356 11.7458 10.1689 12.0815 10.4391 12.3516C10.7093 12.6218 11.045 12.8172 11.4133 12.9186C11.7817 13.02 12.1701 13.024 12.5405 12.9303C13.3205 12.7403 13.9505 12.1103 14.1305 11.3403Z" stroke="black" stroke-width="1.5" stroke-linecap="round" stroke-linejoin="round"/>
<path d="M18.01 17.19C18.8885 16.3717 19.5888 15.381 20.0671 14.2798C20.5454 13.1786 20.7915 11.9906 20.79 10.79C20.79 9.63568 20.5626 8.49266 20.1209 7.42621C19.6791 6.35976 19.0317 5.39076 18.2154 4.57453C17.3992 3.7583 16.4302 3.11084 15.3637 2.6691C14.2973 2.22736 13.1543 2 12 2C10.8456 2 9.70263 2.22736 8.63617 2.6691C7.56972 3.11084 6.60072 3.7583 5.78449 4.57453C4.96827 5.39076 4.3208 6.35976 3.87906 7.42621C3.43732 8.49266 3.20996 9.63568 3.20996 10.79C3.20996 13.33 4.28996 15.62 6.01996 17.22" stroke="black" stroke-width="1.5" stroke-linecap="round" stroke-linejoin="round"/>
<path d="M7.99977 14.5498C7.07977 13.5698 6.50977 12.2498 6.50977 10.7898C6.50977 7.7598 8.96977 5.2998 11.9998 5.2998C15.0298 5.2998 17.4898 7.7598 17.4898 10.7898C17.4898 12.2498 16.9198 13.5598 15.9998 14.5498M10.2998 16.6598L8.85977 18.4498C7.71977 19.8798 8.72977 21.9898 10.5598 21.9898H13.4298C15.2598 21.9898 16.2798 19.8698 15.1298 18.4498L13.6898 16.6598C12.8298 15.5698 11.1698 15.5698 10.2998 16.6598Z" stroke="black" stroke-width="1.5" stroke-linecap="round" stroke-linejoin="round"/>
</svg>
