<svg width="24" height="24" viewBox="0 0 24 24" fill="none" xmlns="http://www.w3.org/2000/svg">
<path d="M16.4097 3.99975C18.3497 3.99975 19.9097 5.56975 19.9097 7.49975C19.9097 9.38975 18.4097 10.9297 16.5397 10.9997C16.4534 10.9897 16.3661 10.9897 16.2797 10.9997M18.3397 19.9997C19.0597 19.8497 19.7397 19.5597 20.2997 19.1297C21.8597 17.9597 21.8597 16.0297 20.2997 14.8597C19.7497 14.4397 19.0797 14.1597 18.3697 13.9997M9.15973 10.8697C9.05973 10.8597 8.93973 10.8597 8.82973 10.8697C7.68193 10.8308 6.59437 10.3466 5.79736 9.51971C5.00034 8.69283 4.55647 7.5882 4.55973 6.43975C4.55973 3.98975 6.53973 1.99975 8.99973 1.99975C10.176 1.97853 11.3124 2.42544 12.1592 3.24216C13.0059 4.05888 13.4935 5.17851 13.5147 6.35475C13.5359 7.53098 13.089 8.66747 12.2723 9.5142C11.4556 10.3609 10.336 10.8485 9.15973 10.8697ZM4.15973 14.5597C1.73973 16.1797 1.73973 18.8197 4.15973 20.4297C6.90973 22.2697 11.4197 22.2697 14.1697 20.4297C16.5897 18.8097 16.5897 16.1697 14.1697 14.5597C11.4297 12.7297 6.91973 12.7297 4.15973 14.5597Z" stroke="black" stroke-width="1.5" stroke-linecap="round" stroke-linejoin="round"/>
</svg>
